<?xml version="1.0" encoding="UTF-8" standalone="no"?>
<!DOCTYPE svg PUBLIC "-//W3C//DTD SVG 1.1//EN"
 "http://www.w3.org/Graphics/SVG/1.1/DTD/svg11.dtd">
<!-- Generated by graphviz version 2.47.0 (20210316.0004)
 -->
<!-- Title: dependencies Pages: 1 -->
<svg width="504pt" height="284pt"
 viewBox="0.00 0.00 504.00 284.00" xmlns="http://www.w3.org/2000/svg" xmlns:xlink="http://www.w3.org/1999/xlink">
<g id="graph0" class="graph" transform="scale(1 1) rotate(0) translate(4 280)">
<title>dependencies</title>
<polygon fill="white" stroke="transparent" points="-4,4 -4,-280 500,-280 500,4 -4,4"/>
<text text-anchor="start" x="227.01" y="-42.4" font-family="Times-12" font-weight="bold" font-size="14.00">Legend</text>
<polygon fill="#ffffb3" stroke="transparent" points="14,-10 14,-30 34,-30 34,-10 14,-10"/>
<text text-anchor="start" x="37.63" y="-15.4" font-family="Times-12" font-size="14.00"> &#160;Declarations</text>
<polygon fill="#8dd3c7" stroke="transparent" points="127,-10 127,-30 147,-30 147,-10 127,-10"/>
<text text-anchor="start" x="150.73" y="-15.4" font-family="Times-12" font-size="14.00"> &#160;Module</text>
<polygon fill="#80b1d3" stroke="transparent" points="213,-10 213,-30 233,-30 233,-10 213,-10"/>
<text text-anchor="start" x="236.78" y="-15.4" font-family="Times-12" font-size="14.00"> &#160;Bootstrap</text>
<polygon fill="#fdb462" stroke="transparent" points="310,-10 310,-30 330,-30 330,-10 310,-10"/>
<text text-anchor="start" x="333.67" y="-15.4" font-family="Times-12" font-size="14.00"> &#160;Providers</text>
<polygon fill="#fb8072" stroke="transparent" points="406,-10 406,-30 426,-30 426,-10 406,-10"/>
<text text-anchor="start" x="429.73" y="-15.4" font-family="Times-12" font-size="14.00"> &#160;Exports</text>
<g id="clust1" class="cluster">
<title>cluster_DownloadsModule</title>
<polygon fill="none" stroke="black" stroke-dasharray="1,5" points="42.5,-70 42.5,-268 453.5,-268 453.5,-70 42.5,-70"/>
</g>
<g id="clust3" class="cluster">
<title>cluster_DownloadsModule_imports</title>
<polygon fill="none" stroke="black" points="50.5,-78 50.5,-130 445.5,-130 445.5,-78 50.5,-78"/>
</g>
<g id="clust4" class="cluster">
<title>cluster_DownloadsModule_exports</title>
<polygon fill="none" stroke="black" points="146.5,-208 146.5,-260 348.5,-260 348.5,-208 146.5,-208"/>
</g>
<!-- DescargaprincipalComponent -->
<g id="node1" class="node">
<title>DescargaprincipalComponent</title>
<polygon fill="#8dd3c7" stroke="black" points="437.16,-122 434.16,-126 413.16,-126 410.16,-122 253.84,-122 253.84,-86 437.16,-86 437.16,-122"/>
<text text-anchor="middle" x="345.5" y="-99.8" font-family="Times,serif" font-size="14.00">DescargaprincipalComponent</text>
</g>
<!-- DownloadsModule -->
<g id="node3" class="node">
<title>DownloadsModule</title>
<polygon fill="#8dd3c7" stroke="black" points="309.31,-187 306.31,-191 285.31,-191 282.31,-187 185.69,-187 185.69,-151 309.31,-151 309.31,-187"/>
<text text-anchor="middle" x="247.5" y="-164.8" font-family="Times,serif" font-size="14.00">DownloadsModule</text>
</g>
<!-- DescargaprincipalComponent&#45;&gt;DownloadsModule -->
<g id="edge1" class="edge">
<title>DescargaprincipalComponent&#45;&gt;DownloadsModule</title>
<path fill="none" stroke="black" d="M281.54,-122.11C281.54,-122.11 281.54,-140.99 281.54,-140.99"/>
<polygon fill="black" stroke="black" points="278.04,-140.99 281.54,-150.99 285.04,-140.99 278.04,-140.99"/>
</g>
<!-- FormulariodriverComponent -->
<g id="node2" class="node">
<title>FormulariodriverComponent</title>
<polygon fill="#8dd3c7" stroke="black" points="236.25,-122 233.25,-126 212.25,-126 209.25,-122 58.75,-122 58.75,-86 236.25,-86 236.25,-122"/>
<text text-anchor="middle" x="147.5" y="-99.8" font-family="Times,serif" font-size="14.00">FormulariodriverComponent</text>
</g>
<!-- FormulariodriverComponent&#45;&gt;DownloadsModule -->
<g id="edge2" class="edge">
<title>FormulariodriverComponent&#45;&gt;DownloadsModule</title>
<path fill="none" stroke="black" d="M211.11,-122.11C211.11,-122.11 211.11,-140.99 211.11,-140.99"/>
<polygon fill="black" stroke="black" points="207.61,-140.99 211.11,-150.99 214.61,-140.99 207.61,-140.99"/>
</g>
<!-- DescargaprincipalComponent  -->
<g id="node4" class="node">
<title>DescargaprincipalComponent </title>
<polygon fill="#fb8072" stroke="black" points="340.66,-252 154.34,-252 154.34,-216 340.66,-216 340.66,-252"/>
<text text-anchor="middle" x="247.5" y="-229.8" font-family="Times,serif" font-size="14.00">DescargaprincipalComponent </text>
</g>
<!-- DownloadsModule&#45;&gt;DescargaprincipalComponent  -->
<g id="edge3" class="edge">
<title>DownloadsModule&#45;&gt;DescargaprincipalComponent </title>
<path fill="none" stroke="black" stroke-dasharray="5,2" d="M247.5,-187.11C247.5,-187.11 247.5,-205.99 247.5,-205.99"/>
<polygon fill="black" stroke="black" points="244,-205.99 247.5,-215.99 251,-205.99 244,-205.99"/>
</g>
</g>
</svg>
