<?xml version="1.0" encoding="UTF-8" standalone="no"?>
<!DOCTYPE svg PUBLIC "-//W3C//DTD SVG 1.1//EN"
 "http://www.w3.org/Graphics/SVG/1.1/DTD/svg11.dtd">
<!-- Generated by graphviz version 2.47.0 (20210316.0004)
 -->
<!-- Title: dependencies Pages: 1 -->
<svg width="631pt" height="284pt"
 viewBox="0.00 0.00 631.00 284.00" xmlns="http://www.w3.org/2000/svg" xmlns:xlink="http://www.w3.org/1999/xlink">
<g id="graph0" class="graph" transform="scale(1 1) rotate(0) translate(4 280)">
<title>dependencies</title>
<polygon fill="white" stroke="transparent" points="-4,4 -4,-280 627,-280 627,4 -4,4"/>
<text text-anchor="start" x="290.51" y="-42.4" font-family="Times-12" font-weight="bold" font-size="14.00">Legend</text>
<polygon fill="#ffffb3" stroke="transparent" points="77.5,-10 77.5,-30 97.5,-30 97.5,-10 77.5,-10"/>
<text text-anchor="start" x="101.13" y="-15.4" font-family="Times-12" font-size="14.00"> &#160;Declarations</text>
<polygon fill="#8dd3c7" stroke="transparent" points="190.5,-10 190.5,-30 210.5,-30 210.5,-10 190.5,-10"/>
<text text-anchor="start" x="214.23" y="-15.4" font-family="Times-12" font-size="14.00"> &#160;Module</text>
<polygon fill="#80b1d3" stroke="transparent" points="276.5,-10 276.5,-30 296.5,-30 296.5,-10 276.5,-10"/>
<text text-anchor="start" x="300.28" y="-15.4" font-family="Times-12" font-size="14.00"> &#160;Bootstrap</text>
<polygon fill="#fdb462" stroke="transparent" points="373.5,-10 373.5,-30 393.5,-30 393.5,-10 373.5,-10"/>
<text text-anchor="start" x="397.17" y="-15.4" font-family="Times-12" font-size="14.00"> &#160;Providers</text>
<polygon fill="#fb8072" stroke="transparent" points="469.5,-10 469.5,-30 489.5,-30 489.5,-10 469.5,-10"/>
<text text-anchor="start" x="493.23" y="-15.4" font-family="Times-12" font-size="14.00"> &#160;Exports</text>
<g id="clust7" class="cluster">
<title>cluster_DownloadsModule</title>
<polygon fill="none" stroke="black" stroke-dasharray="1,5" points="8,-70 8,-268 419,-268 419,-70 8,-70"/>
</g>
<g id="clust9" class="cluster">
<title>cluster_DownloadsModule_imports</title>
<polygon fill="none" stroke="black" points="16,-78 16,-130 411,-130 411,-78 16,-78"/>
</g>
<g id="clust10" class="cluster">
<title>cluster_DownloadsModule_exports</title>
<polygon fill="none" stroke="black" points="112,-208 112,-260 314,-260 314,-208 112,-208"/>
</g>
<g id="clust25" class="cluster">
<title>cluster_SupportModule</title>
<polygon fill="none" stroke="black" stroke-dasharray="1,5" points="427,-70 427,-195 615,-195 615,-70 427,-70"/>
</g>
<g id="clust27" class="cluster">
<title>cluster_SupportModule_imports</title>
<polygon fill="none" stroke="black" points="435,-78 435,-130 607,-130 607,-78 435,-78"/>
</g>
<!-- DescargaprincipalComponent -->
<g id="node1" class="node">
<title>DescargaprincipalComponent</title>
<polygon fill="#8dd3c7" stroke="black" points="402.66,-122 399.66,-126 378.66,-126 375.66,-122 219.34,-122 219.34,-86 402.66,-86 402.66,-122"/>
<text text-anchor="middle" x="311" y="-99.8" font-family="Times,serif" font-size="14.00">DescargaprincipalComponent</text>
</g>
<!-- DownloadsModule -->
<g id="node3" class="node">
<title>DownloadsModule</title>
<polygon fill="#8dd3c7" stroke="black" points="274.81,-187 271.81,-191 250.81,-191 247.81,-187 151.19,-187 151.19,-151 274.81,-151 274.81,-187"/>
<text text-anchor="middle" x="213" y="-164.8" font-family="Times,serif" font-size="14.00">DownloadsModule</text>
</g>
<!-- DescargaprincipalComponent&#45;&gt;DownloadsModule -->
<g id="edge1" class="edge">
<title>DescargaprincipalComponent&#45;&gt;DownloadsModule</title>
<path fill="none" stroke="black" d="M247.04,-122.11C247.04,-122.11 247.04,-140.99 247.04,-140.99"/>
<polygon fill="black" stroke="black" points="243.54,-140.99 247.04,-150.99 250.54,-140.99 243.54,-140.99"/>
</g>
<!-- FormulariodriverComponent -->
<g id="node2" class="node">
<title>FormulariodriverComponent</title>
<polygon fill="#8dd3c7" stroke="black" points="201.75,-122 198.75,-126 177.75,-126 174.75,-122 24.25,-122 24.25,-86 201.75,-86 201.75,-122"/>
<text text-anchor="middle" x="113" y="-99.8" font-family="Times,serif" font-size="14.00">FormulariodriverComponent</text>
</g>
<!-- FormulariodriverComponent&#45;&gt;DownloadsModule -->
<g id="edge2" class="edge">
<title>FormulariodriverComponent&#45;&gt;DownloadsModule</title>
<path fill="none" stroke="black" d="M176.61,-122.11C176.61,-122.11 176.61,-140.99 176.61,-140.99"/>
<polygon fill="black" stroke="black" points="173.11,-140.99 176.61,-150.99 180.11,-140.99 173.11,-140.99"/>
</g>
<!-- DescargaprincipalComponent  -->
<g id="node4" class="node">
<title>DescargaprincipalComponent </title>
<polygon fill="#fb8072" stroke="black" points="306.16,-252 119.84,-252 119.84,-216 306.16,-216 306.16,-252"/>
<text text-anchor="middle" x="213" y="-229.8" font-family="Times,serif" font-size="14.00">DescargaprincipalComponent </text>
</g>
<!-- DownloadsModule&#45;&gt;DescargaprincipalComponent  -->
<g id="edge3" class="edge">
<title>DownloadsModule&#45;&gt;DescargaprincipalComponent </title>
<path fill="none" stroke="black" stroke-dasharray="5,2" d="M213,-187.11C213,-187.11 213,-205.99 213,-205.99"/>
<polygon fill="black" stroke="black" points="209.5,-205.99 213,-215.99 216.5,-205.99 209.5,-205.99"/>
</g>
<!-- SupportFormComponent -->
<g id="node5" class="node">
<title>SupportFormComponent</title>
<polygon fill="#8dd3c7" stroke="black" points="599,-122 596,-126 575,-126 572,-122 443,-122 443,-86 599,-86 599,-122"/>
<text text-anchor="middle" x="521" y="-99.8" font-family="Times,serif" font-size="14.00">SupportFormComponent</text>
</g>
<!-- SupportModule -->
<g id="node6" class="node">
<title>SupportModule</title>
<polygon fill="#8dd3c7" stroke="black" points="572.88,-187 569.88,-191 548.88,-191 545.88,-187 469.12,-187 469.12,-151 572.88,-151 572.88,-187"/>
<text text-anchor="middle" x="521" y="-164.8" font-family="Times,serif" font-size="14.00">SupportModule</text>
</g>
<!-- SupportFormComponent&#45;&gt;SupportModule -->
<g id="edge4" class="edge">
<title>SupportFormComponent&#45;&gt;SupportModule</title>
<path fill="none" stroke="black" d="M521,-122.11C521,-122.11 521,-140.99 521,-140.99"/>
<polygon fill="black" stroke="black" points="517.5,-140.99 521,-150.99 524.5,-140.99 517.5,-140.99"/>
</g>
</g>
</svg>
